<?xml version="1.0" encoding="utf-8"?>
<!-- Generator: Adobe Illustrator 21.0.2, SVG Export Plug-In . SVG Version: 6.00 Build 0)  -->
<svg version="1.1" id="Ebene_1" xmlns="http://www.w3.org/2000/svg" xmlns:xlink="http://www.w3.org/1999/xlink" x="0px" y="0px"
	 viewBox="0 0 267.7 75.3" style="enable-background:new 0 0 267.7 75.3;" xml:space="preserve">
<style type="text/css">
	.st0{fill:none;stroke:#0090AC;stroke-linecap:round;stroke-miterlimit:10;}
	.st1{fill:#FFFFFF;}
	.st2{fill:none;stroke:#0D90AC;stroke-miterlimit:10;}
	.st3{fill:none;}
	.st4{fill:#0092AD;}
	.st5{clip-path:url(#SVGID_2_);fill:none;stroke:#0092AD;stroke-linecap:round;stroke-miterlimit:10;}
	.st6{clip-path:url(#SVGID_4_);fill:none;stroke:#0091AD;stroke-linecap:round;stroke-miterlimit:10;}
	.st7{clip-path:url(#SVGID_4_);fill:none;stroke:#0091AD;stroke-miterlimit:10;}
	.st8{clip-path:url(#SVGID_4_);fill:#FFFFFF;}
	.st9{clip-path:url(#SVGID_6_);fill:none;stroke:#0090AC;stroke-linecap:round;stroke-miterlimit:10;}
	.st10{clip-path:url(#SVGID_6_);fill:#FFFFFF;}
	.st11{clip-path:url(#SVGID_6_);fill:none;stroke:#D3AB7B;stroke-miterlimit:10;}
	.st12{clip-path:url(#SVGID_12_);fill:none;stroke:#0090AC;stroke-linecap:round;stroke-miterlimit:10;}
	.st13{clip-path:url(#SVGID_12_);fill:none;stroke:#0090AC;stroke-linecap:round;}
	.st14{clip-path:url(#SVGID_12_);fill:#FFFFFF;}
	.st15{fill:none;stroke:#D3AB7B;stroke-miterlimit:10;}
	.st16{clip-path:url(#SVGID_14_);fill:none;stroke:#0090AC;stroke-width:1.046;stroke-miterlimit:10;}
	.st17{clip-path:url(#SVGID_16_);fill:none;stroke:#0090AC;stroke-linecap:round;stroke-miterlimit:10;}
	.st18{clip-path:url(#SVGID_16_);fill:#FFFFFF;}
	.st19{clip-path:url(#SVGID_18_);}
	.st20{clip-path:url(#SVGID_18_);fill:#FFFFFF;}
	.st21{clip-path:url(#SVGID_18_);fill:none;stroke:#0090AC;stroke-linecap:round;stroke-miterlimit:10;}
	.st22{clip-path:url(#SVGID_20_);fill:none;stroke:#0090AC;stroke-linecap:round;stroke-miterlimit:10;}
	.st23{clip-path:url(#SVGID_20_);fill:none;stroke:#0090AC;stroke-linecap:round;}
	.st24{clip-path:url(#SVGID_20_);fill:#FFFFFF;}
	.st25{clip-path:url(#SVGID_22_);fill:none;stroke:#0090AC;stroke-width:1.046;stroke-miterlimit:10;}
	.st26{clip-path:url(#SVGID_24_);fill:none;stroke:#0090AC;stroke-linecap:round;stroke-miterlimit:10;}
	.st27{clip-path:url(#SVGID_24_);fill:#FFFFFF;}
	.st28{clip-path:url(#SVGID_26_);}
	.st29{clip-path:url(#SVGID_26_);fill:#FFFFFF;}
	.st30{clip-path:url(#SVGID_26_);fill:none;stroke:#0090AC;stroke-linecap:round;stroke-miterlimit:10;}
	
		.st31{clip-path:url(#SVGID_30_);fill:none;stroke:#0092AD;stroke-width:1.664;stroke-linecap:round;stroke-linejoin:round;stroke-miterlimit:10;}
</style>
<g>
	<path class="st0" d="M87.1,49c0,0,16.7-10.2,17.7-13.3c1-3,5.4-19.6,8.3-16.8c1.8,2-0.6,13.1,1.8,9.6c2.5-3.5,12.1-11.4,13.9-13
		c1.7-1.5,4.5-0.8,2.2,2.8c-2.3,3.5-6.2,7.7-6.2,7.7s7.3-6.4,9-7.7c1.8-1.6,6.2-1.6,2.9,3.5c-3,4.6-7.1,8.4-7.1,8.4s6.6-5.6,8.2-6.2
		c2.3-0.8,3.5,0.6,1.1,3.6c-2.4,3-6.1,5.4-6.1,5.4s4.7-2.4,6.4-2.9c2.8-0.8,3.6,1.4,1.3,3.2c-2.2,1.7-16.5,10-19.7,14.2
		c-3.2,4.2-15.7,22.5-16.7,21.8C96.3,64,93.2,55.3,87.1,49z M131.8,43.5c0,0,0.8-0.8,1.5-1c0.7-0.2,3.3-1.2,4.1-1.4
		c0.9-0.2,1.4-1.2,2.6-1.5c1.2-0.3,2.6-0.6,3.8-0.7s2.9-1.1,3.3-1.2c0.4,0,0.6,0.1,1.7,0.8c1.1,0.7,4.2,1.3,5.2,1.8
		c1.1,0.5,4,2.7,5.5,3.2c1.5,0.6,4.6,2.2,5.7,2.7c1.1,0.5,2.6,1.2,2.6,1.2 M154.1,55.8l-0.2,4.7 M131.9,45.2l0.2,5.1
		c0,0,0.9,0.8,1.8,1.1c0.9,0.2,3.7,1.5,4.3,2c0.7,0.5,2.2,2,2.9,2.2c0.7,0.2,4.2,1.5,5.2,2.4c1,1,2.5,1.3,3.8,1.7
		c1.3,0.4,3.2,0.9,3.7,0.8c0.5-0.1,2.4-1.4,3.4-1.8s2.9-1.8,3.8-2.4c0.8-0.6,1.3-0.7,2.9-1.4c1.6-0.7,3.1-1.4,3.3-1.9
		c0.2-0.5,0.5-5.1,0.5-5.1 M154.1,55.8c0,0,2.2-0.5,2.9-0.9c0.7-0.4,3.2-1.1,3.6-1.8c0.4-0.7,1.2-1.5,2.9-2.1s2.7-1.4,3.4-1.9
		c0.7-0.5,0.8-1.5,0.8-1.5s-1.9,1.1-2.9,1.3c-1,0.2-1.9,0.8-2.5,1.4c-0.7,0.6-2.6,1-3.2,1.5c-0.6,0.5-3.4,1.7-3.9,2.2
		c-0.5,0.5-1.1,0.7-1.1,0.7s-3-1.2-4-1.6s-2.2-0.7-3.1-1.2c-0.9-0.6-3.2-2.2-4.1-2.4c-0.9-0.2-3-0.7-4.4-1.7c-1.4-1-4.6-2.6-5.4-3.2
		c-0.8-0.6-1.6-1.1-1.6-0.7c0,0.4,0,1.4,0.3,1.6c0.3,0.2,1.3,0.8,1.9,1.1c0.6,0.2,2.7,1.8,3.6,2.2c0.9,0.4,2.7,0.7,3.1,1.2
		c0.4,0.6,1.4,1.2,2.4,1.4c1,0.2,4.1,2,5,2.3c0.9,0.3,3.1,1.7,3.9,1.9C152.6,55.4,153.4,55.8,154.1,55.8z M193.6,35l-0.2,3.1
		c0,0-0.4,5.1-0.4,6.3c0,1.2-0.5,4.3-0.4,6.4c0,2.1,0.3,6.8,0.2,7.5c-0.1,0.7-0.8,0.7-0.8,0.7s-0.3-1.4-0.3-2.3
		c0.1-0.9-0.3-6.6-0.3-8.8c0.1-2.2,0.1-9.5,0.1-9.5l-0.1-3.3 M195.7,19.9c0,0,1,0,2.1-0.1c1.1-0.1,2.4-0.4,3-0.3
		c0.6,0,1.7,0.1,2.4,0.8c0.8,0.7,1.2,2,1.7,1.9c0.6-0.1,1.9-0.3,1.3-1.1c-0.6-0.8-1.6-2.4-2.7-3c-1.1-0.5-2-0.8-3.5-0.7
		c-2.1,0.1-4.7,0.4-4.7,0.4 M194.5,32c0,0,0.1,2.9-0.8,3c-1,0.1-2.4,0.2-2.8-0.2c-0.4-0.4-0.2-2.7-0.2-2.7 M189.4,27.7l0-3.1
		 M195.5,27.5l-0.2-3.1 M189.2,27.8c0,0,1.7-0.3,2.8-0.3c2.1,0,3.4-0.1,4.1,0.3c0.5,0.3,0.6,3.3,0.2,3.7c-0.4,0.3-1.9,0.6-3.4,0.5
		c-1.5-0.1-4,0.3-4.2-0.5C188.4,30.7,188,27.9,189.2,27.8z M194.7,16.9c-1.2,0-5.3,0-5.4,0.4c-0.1,0.4-1.3,7.1,0,7.2
		c1.3,0.1,6.3,0.4,6.3-0.4C195.7,23.3,196.2,16.9,194.7,16.9z M259,30.1c0,0-4.9,7-6.4,8.6c-1.4,1.6-3,3.2-3.5,3.8
		c0,0-0.4,0.5-0.4,1.4c0,0-0.9,5.1-0.9,6s-0.1,4-0.3,4.2c-0.2,0.3-1.3,0-1.6,0c-0.3-0.1-0.1-0.2-0.2-0.9c-0.1-0.7,0-2.5-0.1-3.5
		l-0.1-5.8c0,0,0-1-0.7-1.6c-0.6-0.6-3.2-3.1-3.9-3.8c-0.8-0.7-2.4-2.7-3.2-3.9c-0.8-1.2-2.7-3.4-2.7-3.8 M257.3,32.7
		c0.2,0,1.2-0.4,1.9-0.1c0.6,0.3,1.2,0.9,1.4,1.7c0.3,1.5-1,2.7-2.2,3.3c-0.6,0.3-3.5,0.8-4.3,0.8c-0.4,0-0.8,0.1-1.3,0.1
		 M256.7,33.6c0.2,0,1.2-0.3,1.8-0.1c0.6,0.2,1,0.5,1.1,1.1c0.1,0.7-0.1,1-0.6,1.5c-0.2,0.2-0.7,0.7-1.1,0.9
		c-0.6,0.4-2.8,0.4-3.1,0.5c-0.2,0-0.7,0.1-1.1,0.2 M257.8,28.7c-4.1-1.4-17.2-1.4-21.4,0.8c-4.2,2.1,2.6,2.9,3.9,3
		C251.6,32.9,263.2,30.6,257.8,28.7z M226.1,20.7l0-3.2 M228.4,17.6l0,3l-2.3,0c0,0-0.6,2,0.7,4.1c1.2,2.1,4.3,4.5,3.6,4.6
		c-0.7,0.1-5.6-1.4-7.7-5.5c-0.5,0.1-1.7,0.4-1.7,1c0,1.8,0.4,3.3-0.1,3.7c-1,0.8-4.2,1.1-4.6-0.3c-0.4-1.1-0.8-3.8-0.8-3.8
		s-5.6-0.1-5.7-1.1c-0.1-1,2.2-5.3,4.9-5.8c2.6-0.5,3.3-0.5,5.3-0.5C222.1,16.9,228.4,17.6,228.4,17.6z M219.3,29
		c0,0,0.5,13.3,0.5,14c0,0.7,0.3,9.6,0.3,10c0,0.5,0,9.4,0,9.7c0,0.3-1.1,0.9-1.1,0.2c0-0.7-0.3-22.5-0.4-23c0-0.5-0.3-4.7-0.3-5.3
		c0-0.6-0.3-5.7-0.3-5.7"/>
	<path class="st1" d="M91.6,63.5c0,0,10-16.9,13-17.9c3-1,19.5-5.7,16.7-8.5c-2-1.7-13.1,0.8-9.6-1.7c3.5-2.5,11.2-12.3,12.8-14.1
		c1.5-1.7,0.7-4.5-2.8-2.2c-3.5,2.3-7.6,6.3-7.6,6.3s6.3-7.4,7.6-9.2c1.5-1.8,1.5-6.2-3.5-2.9c-4.5,3.1-8.3,7.2-8.3,7.2
		s5.5-6.7,6-8.3c0.8-2.3-0.7-3.5-3.6-1c-2.9,2.5-5.3,6.2-5.3,6.2s2.3-4.7,2.8-6.4c0.8-2.8-1.4-3.6-3.2-1.3
		c-1.7,2.2-9.8,16.7-14,19.9c-4.2,3.3-22.3,16-21.5,17C77.1,54.2,74.8,59.4,91.6,63.5"/>
	<path class="st0" d="M91.6,63.5c0,0,10-16.9,13-17.9c3-1,19.5-5.7,16.7-8.5c-2-1.7-13.1,0.8-9.6-1.7c3.5-2.5,11.2-12.3,12.8-14.1
		c1.5-1.7,0.7-4.5-2.8-2.2c-3.5,2.3-7.6,6.3-7.6,6.3s6.3-7.4,7.6-9.2c1.5-1.8,1.5-6.2-3.5-2.9c-4.5,3.1-8.3,7.2-8.3,7.2
		s5.5-6.7,6-8.3c0.8-2.3-0.7-3.5-3.6-1c-2.9,2.5-5.3,6.2-5.3,6.2s2.3-4.7,2.8-6.4c0.8-2.8-1.4-3.6-3.2-1.3
		c-1.7,2.2-9.8,16.7-14,19.9c-4.2,3.3-22.3,16-21.5,17C77.1,54.2,74.8,59.4,91.6,63.5z"/>
	<path class="st0" d="M173.5,42.1c-0.6-0.3-0.7,4.1-0.7,4.1c-0.1,1.2,0.1,1.6,0.2,1.7c2.2,1.3,5.1,1.1,7.2,0
		c0.9-0.5-0.4-5.8-0.4-5.8S176.8,44.1,173.5,42.1z M59.7,35.6c0,0-0.3,0.5,0.4,0.7s4.3,0.2,3.5-0.7C62.7,34.5,61,34.7,59.7,35.6z
		 M59.8,36c0,0-0.2,2.8,0,3.1c0.2,0.2,2.2,1.4,3.8,0.4v-3.8 M60.3,39.5c0,0-0.2,0.7-0.3,1c-0.2,0.3-0.8,1.3-0.7,2.3
		c0.1,1,0.1,4.7,0.2,5c0.2,0.3,3.6,1.2,4.5,0.2c0,0,0.2-6.6-0.3-7c-0.7-0.5-0.6-1.3-0.6-1.3 M59.3,42.2c0,0,2.6,1.5,4.5-0.4
		 M59.3,46.1c0,0,1.9,1.8,4.6,0.3 M60.7,36.4l-0.3,3.1 M62,36.4v3.5 M63.1,36.3l0.3,3.4"/>
	<path class="st2" d="M178.3,41.1l-0.5,0.9c0,0-0.7,0.5-2.4,0l-0.3-1"/>
	<path class="st0" d="M179,42.6l0.5,2.1v3.6 M178.1,48.5c0,0,0.3-1.4,0-2.3v-3.4 M176.1,43.3c0,0,0.2,1.6,0,2.1
		c-0.2,0.6,0.1,3,0.1,3 M174.2,42.8c0,0,0.2,0.1,0,1.2c-0.2,1.1,0,2.2,0,2.8c0,0.6,0.1,1.7,0.1,1.7 M177.4,36c0,0-0.3,0.3-0.5,0.3
		c-0.2,0-0.5-0.3-0.5-0.3 M180.6,37.4c0,0-2.4,0.4-3.9,0.3c0,0-3.6-0.3-3.9-0.5 M180.7,37.3c0,0.2-0.4,0.7-0.5,1.2
		c-0.3,1.1-0.5,2.4-0.5,2.4c-1.4,0.2-2.9,0.2-2.9,0.2c-1,0-2.2-0.1-3.4-0.4c0,0,0-1.4-0.2-2.5c-0.1-0.5-0.5-0.9-0.5-1.1
		C175.1,35.5,178.3,35.5,180.7,37.3z M178.1,41.6c-0.2,0,1.3-0.2,1.6,0.4 M173.4,42c0,0,0.3-0.5,1.7-0.4"/>
	<path class="st3" d="M39.8,25.6c0,0-2.3,5.5-2.9,8.4c-0.5,2.8-2.3,5.5-3,9.3c-0.7,3.8-1,10.7-0.9,13.7c0.1,3-0.5,5.8,0.2,7.4
		c0.3,0.8,1.1,2.2,3.1,2.3c2,0.2,10.6,0.7,13.5-0.2c1.8-0.6,2.3-1.5,2.7-3.2c0.4-1.8,1.7-11.1-0.4-15.6c-2.1-4.6-6-8.5-6.1-11.9
		c-0.1-3.4-1.8-9.9-1.8-10.5C44.2,24.6,43.5,27.5,39.8,25.6"/>
	<path class="st0" d="M39.8,25.6c0,0-2.3,5.5-2.9,8.4c-0.5,2.8-2.3,5.5-3,9.3c-0.7,3.8-1,10.7-0.9,13.7c0.1,3-0.5,5.8,0.2,7.4
		c0.3,0.8,1.1,2.2,3.1,2.3c2,0.2,10.6,0.7,13.5-0.2c1.8-0.6,2.3-1.5,2.7-3.2c0.4-1.8,1.7-11.1-0.4-15.6c-2.1-4.6-6-8.5-6.1-11.9
		c-0.1-3.4-1.8-9.9-1.8-10.5C44.2,24.6,43.5,27.5,39.8,25.6z"/>
	<path class="st1" d="M51.6,15.2l0,3l-2.3,0c0,0-0.6,2,0.7,4.1c1.2,2.1,4.3,4.5,3.6,4.6c-0.7,0.1-5.6-1.4-7.7-5.5
		c-0.5,0.1-1.7,0.4-1.7,1c0,1.8,0.4,3.3-0.1,3.7c-1,0.8-4.2,1.1-4.6-0.3c-0.4-1.1-0.8-3.8-0.8-3.8s-4.8-0.1-4.9-1.1
		c-0.1-2.7,2.5-5.5,4.1-5.8c2.6-0.5,3.3-0.5,5.3-0.5C45.2,14.4,51.6,15.2,51.6,15.2"/>
	<path class="st0" d="M51.6,15.2l0,3l-2.3,0c0,0-0.6,2,0.7,4.1c1.2,2.1,4.3,4.5,3.6,4.6c-0.7,0.1-5.6-1.4-7.7-5.5
		c-0.5,0.1-1.7,0.4-1.7,1c0,1.8,0.4,3.3-0.1,3.7c-1,0.8-4.2,1.1-4.6-0.3c-0.4-1.1-0.8-3.8-0.8-3.8s-4.8-0.1-4.9-1.1
		c-0.1-2.7,2.5-5.5,4.1-5.8c2.6-0.5,3.3-0.5,5.3-0.5C45.2,14.4,51.6,15.2,51.6,15.2z"/>
</g>
<line class="st0" x1="49.2" y1="18.3" x2="49.3" y2="15"/>
<g>
	<g>
		<path class="st4" d="M17.8,42.3h-2.4v2.8c0,0.5-0.4,0.9-0.9,0.9h-2c-0.5,0-0.9-0.4-0.9-0.9v-2.8H9.3c-0.5,0-0.9-0.4-0.9-0.9V40
			c0-0.5,0.3-0.9,0.9-0.9h2.4v-2.9c0-0.5,0.3-0.9,0.9-0.9h2c0.5,0,0.9,0.4,0.9,0.9v2.9h2.4c0.5,0,0.9,0.4,0.9,0.9v1.4
			C18.7,41.9,18.3,42.3,17.8,42.3z"/>
	</g>
</g>
</svg>
