<?xml version="1.0" encoding="utf-8"?>
<!-- Generator: Adobe Illustrator 21.0.2, SVG Export Plug-In . SVG Version: 6.00 Build 0)  -->
<svg version="1.1" id="Ebene_1" xmlns="http://www.w3.org/2000/svg" xmlns:xlink="http://www.w3.org/1999/xlink" x="0px" y="0px"
	 viewBox="0 0 314 156.5" style="enable-background:new 0 0 314 156.5;" xml:space="preserve">
<style type="text/css">
	.st0{fill:none;stroke:#0090AC;stroke-linecap:round;stroke-miterlimit:10;}
	.st1{fill:none;stroke:#0090AC;stroke-linecap:round;}
	.st2{clip-path:url(#SVGID_2_);fill:none;stroke:#0090AC;stroke-width:1.046;stroke-miterlimit:10;}
	.st3{fill:#0092AD;}
	.st4{font-family:'ManualRound-BoldCaps';}
	.st5{font-size:12.063px;}
	.st6{fill:#FFFFFF;}
	.st7{fill:none;stroke:#0193AD;stroke-miterlimit:10;}
</style>
<g>
	<g>
		<path class="st0" d="M175.2,43.3c0.1-0.9,0-3.3-0.8-3.4c-0.8-0.1-5.2,0.3-6.3,0c-1-0.3-5.6-0.4-6.5,0c-0.8,0.4-1.3,0.7-1.3,0.7
			s0.5,2.2,0.5,2.8v0.7c0,0,4.2,0.7,7.3,0.4c2.8-0.3,5-0.3,6.5-0.9C174.9,43.5,175.1,43.4,175.2,43.3z M174.6,43.6
			c0,0,1.9,4.4,2.3,5.9c0.4,1.5,1.1,7.5,1.1,10.3c0,0,1,14.2,0,14.9c-1,0.7-2.7,1.2-5.5,1.4c-2.8,0.2-8.1,1.4-8.4,1.5 M160.5,40.6
			c0,0-0.2,2.6,0,3.6s-0.1,1.7-0.1,1.7s-1.4,3.1-1.5,5.5c-0.1,2.4-0.5,16.9-0.5,18.5c0.1,1.6,0,4.7,0,4.7s4.2,1.4,5.5,3
			c0,0,1,0.9,0.9-6.3c-0.1-7.2-0.1-16.7-0.8-18.9c-0.7-2.2-3-8.4-3-8.4 M160.8,44.7c0,0,0.5,6.7,0.7,9.5c0.3,2.8-0.4,3.9-0.4,5.4
			c0.1,1.5,0.4,10.7,0.2,11.5 M158.4,74.5c0,0,2.1-4.4,3.1-3.2s2.3,6.4,2.3,6.4 M167,55.5c0,0,7.3-1,8.4-0.8c1,0.3,1,14.5,0.7,14.9
			c-0.4,0.4-8.1,1.4-8.1,1.4L167,55.5z M168.8,57.1c1.4,0.6,3.8,0.2,5.3,0.2 M169,59.2c1.7,0,3.5,0.1,5.2-0.2 M169.5,61.8
			c1.5,0,3,0,4.6-0.2 M170,64.1c1.1,0.4,2.9-0.4,4.3-0.3 M169.5,66.1c1.6,0,3.5,0.3,5-0.2 M169.6,68.4c1.5,0,2.9-0.3,4.4-0.3
			 M154,40c0.2-1.1,0-4-0.9-4.1c-0.9-0.2-6.4,0.4-7.7,0c-1.3-0.4-6.8-0.4-7.8,0c-0.9,0.5-1.5,0.8-1.5,0.8s0.6,2.6,0.6,3.4v0.9
			c0,0,5.1,0.8,8.9,0.4c3.3-0.3,6.2-0.3,7.9-1C153.5,40.3,153.8,40.2,154,40z M153.3,40.4c0,0,2.3,5.3,2.8,7.1
			c0.4,1.8,1.4,9.1,1.4,12.5c0,0,1.3,17.3,0,18.1c-1.3,0.9-3.2,1.5-6.6,1.8c-3.4,0.3-9.9,1.7-10.3,1.8 M135.9,36.7
			c0,0-0.3,3.1,0,4.4s-0.1,2-0.1,2s-1.8,3.8-1.9,6.6c-0.1,2.8-0.6,20.5-0.6,22.4c0.1,1.9,0,5.8,0,5.8s5,1.7,6.6,3.7
			c0,0,1.2,1.1,1-7.7c-0.1-8.7-0.1-20.2-0.9-22.9c-0.9-2.7-3.7-10.2-3.7-10.2 M136.4,41.7c0,0,0.6,8.3,0.9,11.6s-0.5,4.7-0.5,6.6
			c0.1,1.9,0.5,13,0.2,14 M133.5,77.9c0,0,2.6-5.3,3.9-3.9s2.8,7.7,2.8,7.7 M143.8,54.8c0,0,8.8-1.2,10.2-0.9
			c1.3,0.3,1.3,17.7,0.9,18.1s-9.9,1.8-9.9,1.8L143.8,54.8z M146,56.8c1.7,0.7,4.6,0.2,6.5,0.2 M146.4,59.3c2.1,0,4.4,0.2,6.3-0.2
			 M146.9,62.6c1.9,0,3.7,0,5.5-0.2 M147.5,65.2c1.4,0.5,3.6-0.4,5.1-0.4 M146.9,67.7c1.9,0,4.3,0.4,6.1-0.2 M147.1,70.5
			c1.8,0,3.6-0.3,5.3-0.4"/>
	</g>
	<g>
		<path class="st1" d="M85.5,113.5c0.3,0,0.6,0,0.8-0.1c0.5-0.1,6.8-0.8,8.8-0.9c4.7-0.5,7.6-1,12.2-1.2c3.2-0.2,6.5-0.4,9.7-0.5
			c1.5-0.1,11.4-1.1,11.8-1.7 M80.7,110.5c0.4,0,0.7,0,1-0.1c3.1-0.5,6.3-0.5,9.4-0.7c3.6-0.2,7.1-0.4,10.7-0.6
			c2.8-0.2,5.6-0.2,8.4-0.5c1.2-0.1,2.5-0.3,3.7-0.6c0.9-0.2,1.9-0.2,2.8-0.5c0.6-0.2,1-0.2,1.6-0.3c0.4,0,5-0.9,5.4-0.9
			 M75.9,108.4c0.6,0,3.2-0.1,3.8-0.3c3.2-0.9,6.5-0.9,9.8-1c2.3-0.2,4.6-0.5,6.7-0.7c3.3-0.3,21.7-2.1,22.8-2.3 M70.6,105.1
			c1.7-0.1,3.5-0.2,5.2-0.3c4-0.3,8-1.1,12-1.3c2.8-0.2,20-1.2,21-1.3c0.7,0,4.8-0.8,5.4-0.8 M113.5,96.9c-1-0.6-2.1-0.8-3.8-0.5
			c-1.7,0.3-57.2,3.4-56.1,4.1c1,0.7,29,18.1,32.6,17.8c3.7-0.2,60.2-4.5,61.3-4.5C148.8,113.7,115.7,98,113.5,96.9z"/>
	</g>
	<g>
		<path class="st0" d="M170,91.3c0,0-0.2-0.7-1.2-1.1s-3.7-1.9-4.9-2c-1.2-0.1-5.2-1.2-6.3-1.7c-1-0.5-1.9-1-1.9-1s-2.7,4.6-3.4,5
			c-0.9,0.6-2,2.2-2.4,2.8c-0.4,0.5-0.4,0.7-0.4,0.7s0.9,0.7,3.5,1.1s4.8,1.1,6.6,1.6c1.8,0.5,5.4,1.1,6.2,1.3
			c0.8,0.2,1.9,0.7,2,0.3c0.1-0.4,0.3-1.6,0.9-3.4C169.2,93,170,91.3,170,91.3z M174.9,91.2c0,0,2.2,0.8,2.1,1.3
			c-0.1,0.6-0.6,2.8-1,3.9c-0.5,1.1-1.6,4.4-1.9,4.9s-1.3,2.9-1.9,2.8c-0.6-0.1-1.8-0.9-1.8-0.9s-2.4-0.7-3.7-0.9
			c-1.3-0.3-3.3-0.7-4.7-0.9s-10.1-1.7-11.5-1.9c-1.5-0.2-2.9,0.1-3.8-0.7c-0.9-0.8-3-3.8-2.9-4 M174.9,91.2c0,0-4.9-3.1-9.5-5.2
			c-4.6-2-9.5-4.1-10.8-3c-1.3,1-3.9,3.4-5.3,4.8c-1.4,1.4-4.1,4.6-4.6,5.4c-0.5,0.9-1.7,1.7-0.3,2c1.4,0.3,3,1.2,5.6,1.7
			s9.3,2.7,10.4,2.9s5.6,1.4,6.9,2c1.3,0.6,3,1.5,3,1.5s0.9-0.9,1.4-2.2c0.5-1.3,1.4-2.8,1.5-3.6c0.1-0.9,1.2-4.6,1.4-5
			C174.9,91.9,175.2,91.3,174.9,91.2z M207.7,53.8c2.1,0,4.6,0.4,6.5-0.2 M207.9,56.6c2,0,3.8-0.4,5.7-0.4 M213,59.1
			c-1.5,0-3.8,0.3-5.1-0.2 M213.7,64.2c-1.9,0-4.2,0.3-6-0.1 M208.1,61.5c1.8,0.6,4.3,0.1,6.3,0.1 M212.2,25.2
			c0.9,0.6-0.9,0.8-1.8,0.9c-0.8,0.1-3.9-0.2-2.9-0.9S210.9,24.4,212.2,25.2z M207.4,25.4c0,0-0.6,3,0,3.6c0,0,2.1,1.5,4.1,0.8
			c0,0,1.4-0.2,1.4-1.1c0-0.9-0.4-3.1-0.4-3.1 M208.1,26c0,1.4-0.2,2.3-0.3,3.2 M209.6,26.1c0,0.7,0.1,1.1,0,1.8
			c-0.1,0.6-0.5,1.3-0.4,1.8 M210.9,26.1c0.4,1,0,2.5,0,3.7 M211.8,25.8c0.4,1.1-0.1,2.7,0.3,3.8 M207.6,29c0,0-0.2,2.5-1.8,8.7
			c-1.3,5.3-3.6,10.4-3.5,16.4s0.2,13.5,0.2,15.5s0.3,10,0.9,10.5c1.3,0.9,7.3,3.6,13.2,1.3c0,0,2.1-0.9,2.1-2.3
			c0-1.6,0-12.9,0-16.8c0-3.9-0.7-12.3-1.4-15.5s-2.2-7.2-2.9-10.6s-1.5-6.4-1.6-7 M213.7,35.1c-0.5-0.7-2.2-0.8-3.5-0.8
			s-3.4,0.3-3.8,0.9c0,0-0.3,0.9,1.1,0.9C209.7,36.3,214.6,36.4,213.7,35.1z M204.6,49.9c0,0,3.6,0.9,5.6,1c0.1,0,0.2,0,0.3,0
			c2,0.1,4.7-0.5,5.1-0.9c0.3-0.4,0.9,16.7,0.9,17c0,0.3-8.3,2-11.4-1.2c0,0-0.6-8.2-0.5-10.3C204.8,53.6,204.6,50.6,204.6,49.9z"/>
	</g>
</g>
<g>
	<g>
		<defs>
			<polygon id="SVGID_1_" points="232,110.3 235.5,118.5 235.9,118.5 260.8,107.7 260.8,107 257.5,99.3 			"/>
		</defs>
		<clipPath id="SVGID_2_">
			<use xlink:href="#SVGID_1_"  style="overflow:visible;"/>
		</clipPath>
		<path class="st2" d="M246.5,108.5c-0.3-1.1-2.7-1.1-4.2-0.5s-4.2,2.7-3.6,3.8c0.6,1.1,2.6,0.6,4.6-0.3
			C245.3,110.7,246.9,110,246.5,108.5z M238.7,111.8c0,0,1.8,4.1,5.5,2.5s2.3-5.9,2.3-5.9 M246.1,108c2.5-1.2,3.5-1.8,6.6-3
			c3.4-1.5,5.6-2.6,6.2-1.5c0.8,1.5-2.1,2.4-4,3.2c-2,0.9-7.1,3.4-7.8,3.4"/>
	</g>
</g>
<g>
	<g>
		<path class="st0" d="M158.6,88.9c0,0-1.6,1.1-1.7,1.9c-0.1,0.8-1.4,2.1-1.4,2.1 M161.9,89.5c0,0-0.9,2.1-1.6,2.8
			c-0.7,0.7-0.6,2-0.6,2 M162.6,95.3c0-0.8,1.8-4.7,1.8-4.7"/>
	</g>
</g>
<g>
	<path class="st3" d="M244.3,63.5c-4.8,0-9.3-2.8-9.3-10.4c0-5.8,2.2-9.6,5.3-12.2c2.7-2.3,5.8-3.6,9-4.4c0.8-0.2,1.3,0.1,1.6,0.9
		l0.5,1.9c0.2,0.8-0.2,1.3-0.9,1.6c-2.4,0.8-4.7,1.8-6.6,3.5c-1.3,1.1-2.2,2.4-2.7,3.9c1.3-0.9,2.9-1.3,4.7-1.3
		c4.6,0,7.6,2.7,7.6,8.1C253.8,61,249.4,63.5,244.3,63.5z M244.7,51.3c-1.3,0-2.6,0.4-3.6,1c0,0.6,0,1.1,0,1.4
		c0,3.6,1.4,5.1,3.4,5.1c2.4,0,3.4-1.5,3.4-4C247.8,52.6,246.9,51.3,244.7,51.3z"/>
</g>
<text transform="matrix(1 0 0 1 255.0576 62.1123)" class="st3 st4 st5"> </text>
<g>
	<path class="st3" d="M262.9,61.2h-4.3c-0.3,0-0.4-0.2-0.4-0.4v-0.3c0-0.2,0-0.3,0.2-0.6l2.2-4.1h-1.8c-0.3,0-0.4-0.2-0.4-0.4v-0.8
		c0-0.3,0.2-0.4,0.4-0.4h4c0.3,0,0.4,0.2,0.4,0.4v0.2c0,0.2-0.1,0.5-0.2,0.7l-2.2,4h2.1c0.3,0,0.4,0.2,0.4,0.4v0.8
		C263.3,61,263.1,61.2,262.9,61.2z"/>
	<path class="st3" d="M267.8,61.3c-1.8,0-3-0.8-3-3v-3.4c0-0.3,0.2-0.4,0.4-0.4h1c0.3,0,0.4,0.2,0.4,0.4v3.5c0,0.9,0.5,1.4,1.1,1.4
		c0.7,0,1.1-0.4,1.1-1.4v-3.5c0-0.3,0.2-0.4,0.4-0.4h1c0.3,0,0.4,0.2,0.4,0.4v3.4C270.7,60.5,269.6,61.3,267.8,61.3z"/>
	<path class="st3" d="M277.1,55.9h-1.5v4.7c0,0.3-0.2,0.4-0.4,0.4h-1c-0.3,0-0.4-0.2-0.4-0.4v-4.7h-1.5c-0.3,0-0.4-0.2-0.4-0.4v-0.8
		c0-0.3,0.2-0.4,0.4-0.4h4.9c0.3,0,0.4,0.2,0.4,0.4v0.8C277.6,55.8,277.4,55.9,277.1,55.9z"/>
	<path class="st3" d="M284.5,61.2h-1.2c-0.3,0-0.4-0.2-0.5-0.4l-0.2-0.5h-2.9l-0.2,0.5c-0.1,0.2-0.2,0.4-0.5,0.4h-1.3
		c-0.3,0-0.4-0.2-0.3-0.4l2.4-6c0.1-0.2,0.2-0.4,0.5-0.4h1.5c0.3,0,0.4,0.2,0.5,0.4l2.4,6C284.9,61,284.7,61.2,284.5,61.2z
		 M281.2,56.4l-0.9,2.3h1.7L281.2,56.4z"/>
	<path class="st3" d="M290.2,55.9h-1.5v4.7c0,0.3-0.2,0.4-0.4,0.4h-1c-0.3,0-0.4-0.2-0.4-0.4v-4.7h-1.5c-0.3,0-0.4-0.2-0.4-0.4v-0.8
		c0-0.3,0.2-0.4,0.4-0.4h4.9c0.3,0,0.4,0.2,0.4,0.4v0.8C290.6,55.8,290.4,55.9,290.2,55.9z"/>
	<path class="st3" d="M295.9,61.2h-3.8c-0.3,0-0.4-0.2-0.4-0.4v-6c0-0.3,0.2-0.4,0.4-0.4h3.8c0.3,0,0.4,0.2,0.4,0.4v0.8
		c0,0.3-0.2,0.4-0.4,0.4h-2.4v1h1.9c0.3,0,0.4,0.2,0.4,0.4v0.8c0,0.3-0.2,0.4-0.4,0.4h-1.9v1h2.4c0.3,0,0.4,0.2,0.4,0.4v0.8
		C296.3,61,296.1,61.2,295.9,61.2z"/>
	<path class="st3" d="M303.7,61.2h-0.7c-0.3,0-0.5-0.2-0.7-0.4l-2.8-2.9v2.9c0,0.3-0.2,0.4-0.4,0.4h-1c-0.3,0-0.4-0.2-0.4-0.4v-6
		c0-0.3,0.2-0.4,0.4-0.4h0.7c0.3,0,0.5,0.2,0.7,0.4l2.8,2.9v-2.9c0-0.3,0.2-0.4,0.4-0.4h1c0.3,0,0.4,0.2,0.4,0.4v6
		C304.2,61,304,61.2,303.7,61.2z"/>
</g>
<g>
	<g>
		<g>
			<path class="st3" d="M63.4,146.9H52c-0.8,0-1.3-0.6-1.3-1.3v-1.3c0-0.8,0.5-1.3,1.3-1.3h3v-11.3l-3.3,0.9
				c-0.8,0.2-1.2-0.3-1.4-0.9l-0.5-1.8c-0.2-0.8,0.2-1.2,0.9-1.5l6.5-2.8c0.5-0.2,1-0.3,1.8-0.3h0.7c0.8,0,1.3,0.6,1.3,1.3v16.5h2.6
				c0.8,0,1.3,0.6,1.3,1.3v1.3C64.7,146.4,64.2,146.9,63.4,146.9z"/>
			<path class="st3" d="M76.8,147.3c-6.1,0-11.2-3.1-11.2-11.2c0-7.7,5.1-11.3,11.2-11.3c6.1,0,11.1,3.5,11.1,11.3
				C87.9,144.2,82.9,147.3,76.8,147.3z M76.8,129.6c-2.8,0-5.1,1.8-5.1,6.5c0,4.7,2.3,6.5,5.1,6.5c2.8,0,5.1-1.9,5.1-6.5
				C81.9,131.4,79.6,129.6,76.8,129.6z"/>
		</g>
	</g>
	<g>
		<g>
			<text transform="matrix(1 0 0 1 90.8917 144.9231)" class="st3 st4 st5"> </text>
		</g>
	</g>
	<g>
		<g>
			<path class="st3" d="M98.2,145h-1.4c-0.3,0-0.4-0.2-0.5-0.4l-0.9-1.9h-0.5v1.9c0,0.3-0.2,0.4-0.4,0.4h-1c-0.3,0-0.4-0.2-0.4-0.4
				v-6c0-0.3,0.2-0.4,0.4-0.4h2.2c1.7,0,2.7,0.6,2.7,2.2c0,0.9-0.4,1.5-1,1.9l1.2,2.3C98.6,144.8,98.5,145,98.2,145z M95.5,139.7
				h-0.6v1.4h0.6c0.6,0,0.9-0.2,0.9-0.7C96.3,139.9,96.1,139.7,95.5,139.7z"/>
			<path class="st3" d="M104.1,145h-3.8c-0.3,0-0.4-0.2-0.4-0.4v-6c0-0.3,0.2-0.4,0.4-0.4h3.8c0.3,0,0.4,0.2,0.4,0.4v0.8
				c0,0.3-0.2,0.4-0.4,0.4h-2.4v1h1.9c0.3,0,0.4,0.2,0.4,0.4v0.8c0,0.3-0.2,0.4-0.4,0.4h-1.9v1h2.4c0.3,0,0.4,0.2,0.4,0.4v0.8
				C104.6,144.8,104.4,145,104.1,145z"/>
			<path class="st3" d="M110.3,145H106c-0.3,0-0.4-0.2-0.4-0.4v-0.3c0-0.2,0-0.3,0.2-0.6l2.2-4.1h-1.8c-0.3,0-0.4-0.2-0.4-0.4v-0.8
				c0-0.3,0.2-0.4,0.4-0.4h4c0.3,0,0.4,0.2,0.4,0.4v0.2c0,0.2-0.1,0.5-0.2,0.7l-2.2,4h2.1c0.3,0,0.4,0.2,0.4,0.4v0.8
				C110.7,144.8,110.5,145,110.3,145z"/>
			<path class="st3" d="M116.4,145h-3.8c-0.3,0-0.4-0.2-0.4-0.4v-6c0-0.3,0.2-0.4,0.4-0.4h3.8c0.3,0,0.4,0.2,0.4,0.4v0.8
				c0,0.3-0.2,0.4-0.4,0.4H114v1h1.9c0.3,0,0.4,0.2,0.4,0.4v0.8c0,0.3-0.2,0.4-0.4,0.4H114v1h2.4c0.3,0,0.4,0.2,0.4,0.4v0.8
				C116.8,144.8,116.6,145,116.4,145z"/>
			<path class="st3" d="M120.9,142.8h-0.9v1.7c0,0.3-0.2,0.4-0.4,0.4h-1c-0.3,0-0.4-0.2-0.4-0.4v-6c0-0.3,0.2-0.4,0.4-0.4h2.4
				c1.7,0,2.7,0.6,2.7,2.3C123.7,142.1,122.6,142.8,120.9,142.8z M120.8,139.7h-0.7v1.6h0.7c0.6,0,0.9-0.2,0.9-0.8
				C121.8,140,121.4,139.7,120.8,139.7z"/>
			<path class="st3" d="M129.6,139.7H128v4.7c0,0.3-0.2,0.4-0.4,0.4h-1c-0.3,0-0.4-0.2-0.4-0.4v-4.7h-1.5c-0.3,0-0.4-0.2-0.4-0.4
				v-0.8c0-0.3,0.2-0.4,0.4-0.4h4.9c0.3,0,0.4,0.2,0.4,0.4v0.8C129.9,139.6,129.8,139.7,129.6,139.7z"/>
			<path class="st3" d="M135.3,145h-3.8c-0.3,0-0.4-0.2-0.4-0.4v-6c0-0.3,0.2-0.4,0.4-0.4h3.8c0.3,0,0.4,0.2,0.4,0.4v0.8
				c0,0.3-0.2,0.4-0.4,0.4h-2.4v1h1.9c0.3,0,0.4,0.2,0.4,0.4v0.8c0,0.3-0.2,0.4-0.4,0.4h-1.9v1h2.4c0.3,0,0.4,0.2,0.4,0.4v0.8
				C135.6,144.8,135.5,145,135.3,145z"/>
		</g>
	</g>
	<g>
		<path class="st6" d="M236.2,90.6c0,0.9,0.5,3.3,0.2,3.7c-0.4,0.4,0.4,1.9,0.1,2.6c-0.3,0.7,0.3,3.2,0.1,4.1
			c-0.2,0.9,0.1,1.7,0.1,1.7 M227.8,88.4c0,0-2.1-0.1-3.1,0.5c-1.1,0.7-1.9,1.3-1.6,2.9c0.3,1.7,0.5,2.8,1.7,3.9
			c1.2,0.9,2.8,1.2,2.8,2 M227.7,86.7c0,0-3.2,0.5-4.4,1.2c-1.1,0.8-2.3,1.2-2.3,3.3c0,2.1,0.3,3.2,1.2,4.4c0.9,1.1,3.2,2.7,4.3,3.6
			c1,0.9,1,1.1,1.1,1.6 M246.6,87.4c0,0-1.5,1.5-2.1,2.8c-0.7,1.3-0.2,10.1-0.4,10.8c-0.1,0.8,0,0.9-0.9,1.6
			c-0.9,0.7-3.2,2.5-7.7,2.3c-4.6-0.2-6.9-2.6-7.4-3.2c-0.6-0.7-0.5-1.2-0.6-3.3c-0.1-2.1,0.4-9.1,0.2-10.1c-0.2-0.9-0.1-1.4-0.1-2
			 M246.6,87.4c0,0.5-0.9-0.3-2.3-0.3c-0.7,0-1.8,0.2-2.4,0.3c-1.3,0.3-1.7,0.5-3.6,1c-1.9,0.5-3.1,0.6-5.4,0.3
			c-2.8-0.5-3.8-1-3.8-1s-2.8-1.6-0.8-2.6c1.6-0.8,4.3-1.4,7.7-1.5c3.4-0.2,5.6,0.5,6.5,0.8C244.6,85.2,246.6,86.9,246.6,87.4
			 M210,92.3l0.2,4.1 M208.6,92.5v4.3 M206.2,86.8c0,0-2.3-0.3-2.9,0.5c-0.7,0.8-0.3,1.2,0.7,1.3C204.8,88.7,208.9,88,206.2,86.8
			 M211.4,90.5c0,0-1.1-0.2-2.2,0c-1,0.2-2.5,1.4-1.8,1.7c0.7,0.2,2.2,0.4,2.9,0C211,91.7,211.8,91.1,211.4,90.5 M211.4,91.3
			l0.6,4.8c0,0-1.2,1-3,0.8c-1.8-0.3-1.8-0.6-1.8-0.6l0.1-4.4 M211.4,96.3c0,0,0.6,0.6,0.7,0.7c0.1,0.1,0.5,0.8,0.5,1.3
			c0,0.6,0.3,6.8,0.3,6.8c-2.2,1.8-5.3,0.4-5.3,0.4s-0.3-5.5-0.3-6.5c-0.1-0.9-0.1-1.3,0.3-1.8c0.4-0.5,0.4-0.6,0.4-0.6 M207.2,98.4
			c0,0,3,1.5,5.3-0.5 M207.4,103.5c0,0,3,1.3,5.3-0.5 M202.9,88c0,0-0.2,4.1-0.1,4.5c0.1,0.3,2.8,1.1,4.3-0.1 M207.1,87.7l0.2,3.8
			 M204.3,88.6l-0.2,4.3 M205.8,88.4l0.3,4.5 M203.3,92.9c0,0,0,0.3-0.4,0.8c-0.4,0.5-0.8,1.6-0.6,3.3c0.2,1.7,0.6,6.6,0.6,6.6
			s1.7,1.6,4.3,0.5 M206.6,92.8c0,0,0,0.5,0.4,0.7 M207,94.3c0,0-1.9,1.4-4.5,0.2 M202.8,101.9c0,0,2.2,0.9,4.5,0 M178.5,51.2
			c1.7,0.7,4.5,0.7,7.7,0.9c3.7,0.4,8.7-0.4,8.7-0.4V51c0-0.8,0.6-3.3,0.6-3.3s-0.6-0.4-1.5-0.8c-0.9-0.5-6.4-0.4-7.7,0
			c-1.2,0.4-6.5-0.2-7.5,0s-1,2.9-0.9,4C178.1,51,178.3,51.1,178.5,51.2 M191.1,91.5c-0.5-0.1-6.7-1.5-10.2-1.8
			c-3.4-0.3-5.2-0.9-6.5-1.7c-1.2-0.8,0-17.7,0-17.7c0-3.3,1-10.4,1.4-12.2c0.4-1.8,2.7-6.9,2.7-6.9 M195,51.8c0,0-2.8,7.3-3.7,10
			c-0.8,2.6-0.8,13.8-0.9,22.3c-0.1,8.5,1,7.5,1,7.5c1.6-1.9,6.5-3.6,6.5-3.6s-0.1-3.8,0-5.7c0.1-1.9-0.4-19.1-0.6-21.8
			c-0.1-2.8-2.3-6.4-2.3-6.4s0.1-0.9,0.4-2.1c0.3-1.2,0-4.3,0-4.3 M194.4,83.7c-0.3-0.9-0.4-16.7-0.1-19.9
			c0.3-3.2,0.4-10.3,0.4-10.3 M191.4,91.4c0,0,1.4-6.2,2.8-7.5s3.8,3.8,3.8,3.8 M186.6,83.8c0,0-9.2-1.2-9.6-1.7
			c-0.5-0.5-0.5-17.4,0.9-17.7c1.3-0.3,10,0.9,10,0.9L186.6,83.8z M179.3,67.3c1.9,0,4.7,0.5,6.4-0.2 M179.1,69.4
			c1.9,0.4,4.1,0.2,6.2,0.2 M179.3,72.6c1.8,0.2,3.6,0.2,5.4,0.2 M179.1,75c1.6,0,3.7,0.9,5,0.4 M178.7,77.7c1.8,0.6,4.1,0.2,6,0.2
			 M179.3,80.1c1.7,0.1,3.4,0.4,5.2,0.4"/>
	</g>
	<g>
		<path class="st0" d="M236.2,90.6c0,0.9,0.5,3.3,0.2,3.7c-0.4,0.4,0.4,1.9,0.1,2.6c-0.3,0.7,0.3,3.2,0.1,4.1
			c-0.2,0.9,0.1,1.7,0.1,1.7 M227.8,88.4c0,0-2.1-0.1-3.1,0.5c-1.1,0.7-1.9,1.3-1.6,2.9c0.3,1.7,0.5,2.8,1.7,3.9
			c1.2,0.9,2.8,1.2,2.8,2 M227.7,86.7c0,0-3.2,0.5-4.4,1.2c-1.1,0.8-2.3,1.2-2.3,3.3c0,2.1,0.3,3.2,1.2,4.4c0.9,1.1,3.2,2.7,4.3,3.6
			c1,0.9,1,1.1,1.1,1.6 M246.6,87.4c0,0-1.5,1.5-2.1,2.8c-0.7,1.3-0.2,10.1-0.4,10.8c-0.1,0.8,0,0.9-0.9,1.6
			c-0.9,0.7-3.2,2.5-7.7,2.3c-4.6-0.2-6.9-2.6-7.4-3.2c-0.6-0.7-0.5-1.2-0.6-3.3c-0.1-2.1,0.4-9.1,0.2-10.1c-0.2-0.9-0.1-1.4-0.1-2
			 M246.6,87.4c0,0.5-0.9-0.3-2.3-0.3c-0.7,0-1.8,0.2-2.4,0.3c-1.3,0.3-1.7,0.5-3.6,1c-1.9,0.5-3.1,0.6-5.4,0.3
			c-2.8-0.5-3.8-1-3.8-1s-2.8-1.6-0.8-2.6c1.6-0.8,4.3-1.4,7.7-1.5c3.4-0.2,5.6,0.5,6.5,0.8C244.6,85.2,246.6,86.9,246.6,87.4z
			 M210,92.3l0.2,4.1 M208.6,92.5v4.3 M206.2,86.8c0,0-2.3-0.3-2.9,0.5c-0.7,0.8-0.3,1.2,0.7,1.3C204.8,88.7,208.9,88,206.2,86.8z
			 M211.4,90.5c0,0-1.1-0.2-2.2,0c-1,0.2-2.5,1.4-1.8,1.7c0.7,0.2,2.2,0.4,2.9,0C211,91.7,211.8,91.1,211.4,90.5z M211.4,91.3
			l0.6,4.8c0,0-1.2,1-3,0.8c-1.8-0.3-1.8-0.6-1.8-0.6l0.1-4.4 M211.4,96.3c0,0,0.6,0.6,0.7,0.7c0.1,0.1,0.5,0.8,0.5,1.3
			c0,0.6,0.3,6.8,0.3,6.8c-2.2,1.8-5.3,0.4-5.3,0.4s-0.3-5.5-0.3-6.5c-0.1-0.9-0.1-1.3,0.3-1.8c0.4-0.5,0.4-0.6,0.4-0.6 M207.2,98.4
			c0,0,3,1.5,5.3-0.5 M207.4,103.5c0,0,3,1.3,5.3-0.5 M202.9,88c0,0-0.2,4.1-0.1,4.5c0.1,0.3,2.8,1.1,4.3-0.1 M207.1,87.7l0.2,3.8
			 M204.3,88.6l-0.2,4.3 M205.8,88.4l0.3,4.5 M203.3,92.9c0,0,0,0.3-0.4,0.8c-0.4,0.5-0.8,1.6-0.6,3.3c0.2,1.7,0.6,6.6,0.6,6.6
			s1.7,1.6,4.3,0.5 M206.6,92.8c0,0,0,0.5,0.4,0.7 M207,94.3c0,0-1.9,1.4-4.5,0.2 M202.8,101.9c0,0,2.2,0.9,4.5,0 M178.5,51.2
			c1.7,0.7,4.5,0.7,7.7,0.9c3.7,0.4,8.7-0.4,8.7-0.4V51c0-0.8,0.6-3.3,0.6-3.3s-0.6-0.4-1.5-0.8c-0.9-0.5-6.4-0.4-7.7,0
			c-1.2,0.4-6.5-0.2-7.5,0s-1,2.9-0.9,4C178.1,51,178.3,51.1,178.5,51.2z M191.1,91.5c-0.5-0.1-6.7-1.5-10.2-1.8
			c-3.4-0.3-5.2-0.9-6.5-1.7c-1.2-0.8,0-17.7,0-17.7c0-3.3,1-10.4,1.4-12.2c0.4-1.8,2.7-6.9,2.7-6.9 M195,51.8c0,0-2.8,7.3-3.7,10
			c-0.8,2.6-0.8,13.8-0.9,22.3c-0.1,8.5,1,7.5,1,7.5c1.6-1.9,6.5-3.6,6.5-3.6s-0.1-3.8,0-5.7c0.1-1.9-0.4-19.1-0.6-21.8
			c-0.1-2.8-2.3-6.4-2.3-6.4s0.1-0.9,0.4-2.1c0.3-1.2,0-4.3,0-4.3 M194.4,83.7c-0.3-0.9-0.4-16.7-0.1-19.9
			c0.3-3.2,0.4-10.3,0.4-10.3 M191.4,91.4c0,0,1.4-6.2,2.8-7.5s3.8,3.8,3.8,3.8 M186.6,83.8c0,0-9.2-1.2-9.6-1.7
			c-0.5-0.5-0.5-17.4,0.9-17.7c1.3-0.3,10,0.9,10,0.9L186.6,83.8z M179.3,67.3c1.9,0,4.7,0.5,6.4-0.2 M179.1,69.4
			c1.9,0.4,4.1,0.2,6.2,0.2 M179.3,72.6c1.8,0.2,3.6,0.2,5.4,0.2 M179.1,75c1.6,0,3.7,0.9,5,0.4 M178.7,77.7c1.8,0.6,4.1,0.2,6,0.2
			 M179.3,80.1c1.7,0.1,3.4,0.4,5.2,0.4"/>
	</g>
	<g>
		<path class="st6" d="M28.2,115.6c0,0,1.6-19.7,0.4-19.7c-1.2,0-13.1,0.9-13.1,1.6c0,0.9-0.9,22.3,0,22.3s8.5-0.2,8.5-0.2
			L28.2,115.6z M24.1,119.6c0.9-1.7-0.2-5.9-0.2-5.9c2.2,2.2,4.3,1.8,4.3,1.8l-0.2,3.9L24.1,119.6z"/>
	</g>
	<g>
		<path class="st0" d="M28.2,115.6c0,0,1.6-19.7,0.4-19.7c-1.2,0-13.1,0.9-13.1,1.6c0,0.9-0.9,22.3,0,22.3s8.5-0.2,8.5-0.2
			L28.2,115.6z M24.1,119.6c0.9-1.7-0.2-5.9-0.2-5.9c2.2,2.2,4.3,1.8,4.3,1.8l-0.2,3.9L24.1,119.6z"/>
	</g>
	<g>
		<path class="st6" d="M30.5,117.2c0,0,1.6-19.8,0.4-19.8c-1.2,0-13.3,0.9-13.3,1.6s-0.9,22.5,0,22.5c0.9,0,8.7-0.2,8.7-0.2
			L30.5,117.2z M26.4,121.3c0.9-1.7-0.2-5.9-0.2-5.9c2.2,2.2,4.4,1.8,4.4,1.8l-0.2,3.9L26.4,121.3z"/>
	</g>
	<g>
		<path class="st0" d="M30.5,117.2c0,0,1.6-19.8,0.4-19.8c-1.2,0-13.3,0.9-13.3,1.6s-0.9,22.5,0,22.5c0.9,0,8.7-0.2,8.7-0.2
			L30.5,117.2z M26.4,121.3c0.9-1.7-0.2-5.9-0.2-5.9c2.2,2.2,4.4,1.8,4.4,1.8l-0.2,3.9L26.4,121.3z"/>
	</g>
	<g>
		<path class="st6" d="M32.6,118.7c0,0,1.6-19.8,0.4-19.8c-1.2,0-13.3,0.9-13.3,1.6s-0.9,22.5,0,22.5c0.9,0,8.7-0.2,8.7-0.2
			L32.6,118.7z M28.6,122.8c0.9-1.7-0.2-5.9-0.2-5.9c2.2,2.2,4.4,1.8,4.4,1.8l-0.2,3.9L28.6,122.8z"/>
	</g>
	<g>
		<path class="st0" d="M32.6,118.7c0,0,1.6-19.8,0.4-19.8c-1.2,0-13.3,0.9-13.3,1.6s-0.9,22.5,0,22.5c0.9,0,8.7-0.2,8.7-0.2
			L32.6,118.7z M28.6,122.8c0.9-1.7-0.2-5.9-0.2-5.9c2.2,2.2,4.4,1.8,4.4,1.8l-0.2,3.9L28.6,122.8z"/>
	</g>
	<g>
		<path class="st6" d="M34.7,120.6c0,0,1.6-19.8,0.4-19.8s-13.3,0.9-13.3,1.6s-0.9,22.5,0,22.5c0.9,0,8.7-0.2,8.7-0.2L34.7,120.6z
			 M30.6,124.7c0.9-1.7-0.2-5.9-0.2-5.9c2.2,2.2,4.4,1.8,4.4,1.8l-0.2,3.9L30.6,124.7z"/>
	</g>
	<g>
		<path class="st0" d="M34.7,120.6c0,0,1.6-19.8,0.4-19.8s-13.3,0.9-13.3,1.6s-0.9,22.5,0,22.5c0.9,0,8.7-0.2,8.7-0.2L34.7,120.6z
			 M30.6,124.7c0.9-1.7-0.2-5.9-0.2-5.9c2.2,2.2,4.4,1.8,4.4,1.8l-0.2,3.9L30.6,124.7z"/>
	</g>
	<g>
		<path class="st6" d="M36.9,122c0,0,1.6-19.8,0.4-19.8c-1.2,0-13.3,0.9-13.3,1.6s-0.9,22.5,0,22.5c0.9,0,8.7-0.2,8.7-0.2L36.9,122z
			 M32.8,126.1c0.9-1.7-0.2-5.9-0.2-5.9c2.2,2.2,4.4,1.8,4.4,1.8l-0.2,3.9L32.8,126.1z"/>
	</g>
	<g>
		<path class="st0" d="M36.9,122c0,0,1.6-19.8,0.4-19.8c-1.2,0-13.3,0.9-13.3,1.6s-0.9,22.5,0,22.5c0.9,0,8.7-0.2,8.7-0.2L36.9,122z
			"/>
	</g>
	<g>
		<path class="st6" d="M39.7,125.3c0,0,1.6-19.8,0.4-19.8c-1.2,0-13.3,0.9-13.3,1.6s-0.9,22.5,0,22.5c0.9,0,8.7-0.2,8.7-0.2
			L39.7,125.3z M35.5,129.4c0.9-1.7-0.2-5.9-0.2-5.9c2.2,2.2,4.4,1.8,4.4,1.8l-0.2,3.9L35.5,129.4z"/>
	</g>
	<g>
		<path class="st0" d="M39.7,125.3c0,0,1.6-19.8,0.4-19.8c-1.2,0-13.3,0.9-13.3,1.6s-0.9,22.5,0,22.5c0.9,0,8.7-0.2,8.7-0.2
			L39.7,125.3z M35.5,129.4c0.9-1.7-0.2-5.9-0.2-5.9c2.2,2.2,4.4,1.8,4.4,1.8l-0.2,3.9L35.5,129.4z"/>
	</g>
</g>
<g>
	<path class="st7" d="M16.3,48.9c5.8-0.7,6.3-10.3,6.6-13.6c0.2-1.8,1.1-8.5,1.3-10.6c0.1-0.7,0.2-1.1,0.5-1.4
		c0.2-0.2,0.9-0.6,1.6-0.9c0.6-0.3,1.4-0.6,2.1-0.7c0.6-0.1,1-0.3,1.2-0.1c0.1,0.1,0.5,0.4,0.6,1c0.6,4.3,2.3,12.6,3,16.5
		c0.4,2,1,4.1,2.6,5.5c1.1,0.9,3.3,1.1,5.5,1.2"/>
	<path class="st7" d="M16.3,83.5c1.5,0.9,14.1,4.2,21.1,6.3"/>
	<path class="st7" d="M41.3,45.6c0,4.4,0,41.7,0,45.4"/>
	<path class="st7" d="M69,46.7c0,4,0,37.5,0,40.9"/>
	<path class="st7" d="M105.1,48.9c0,3.4,0,31.9,0,34.7"/>
	<path class="st7" d="M84.2,33.8c0.1-0.7,0.5-1.9,0.8-2.3c0.2-0.2,0.6-0.4,1.4-0.6c0.8-0.2,2.8-0.5,3.4-0.6c0.6-0.1,1.2-0.3,1.5-0.1
		c0.1,0.1,0.4,0.5,0.6,1.1c0.5,1.6,2.3,7.7,3.1,10.4c0.6,2,1.7,4.6,3.3,5.9c1.1,0.9,5.1,1.2,7.3,1.2"/>
	<path class="st7" d="M100.7,35.5c0.2-0.8,0.5-1.8,0.7-2.1c0.2-0.2,0.6-0.2,1.3-0.3c0.8-0.2,2.8-0.5,3.4-0.6
		c0.6-0.1,1.1-0.1,1.4,0.1c0.1,0.1,0.6,0.3,0.7,0.9c1,4,2.2,6.4,3.5,9.8c0.8,1.9,1.6,4.1,3.2,5.4c1.1,0.9,5.1,1.2,7.3,1.2"/>
	<path class="st7" d="M28.6,21.5c0.6-0.1,2-0.3,2.3-0.1c0.1,0.1,0.5,0.4,0.6,1c0.6,4.5,2.3,12.7,3,16.5c0.4,2,1,4.1,2.6,5.5
		c1.1,0.9,2.6,1.2,4.8,1.2"/>
	<path class="st7" d="M56.2,25.2c0.6-0.1,1-0.2,1.3,0c0.1,0.1,0.4,0.4,0.6,1c1,4,2.6,10.7,3.5,14.3c0.5,2,1.5,4,3.1,5.4
		c1.1,0.9,2.6,0.8,4.9,0.8"/>
	<path class="st7" d="M91,30.2c0.6-0.1,1.3-0.1,1.5,0c0.1,0.1,0.4,0.5,0.6,1.1c0.5,1.6,2.3,7.7,3.1,10.4c0.6,2,1.7,4.6,3.3,5.9
		c1.1,0.9,5.1,1.2,7.3,1.2"/>
	<path class="st7" d="M107.4,32.4c0.6-0.1,1.2,0,1.5,0.1c0.1,0.1,0.6,0.3,0.7,0.9c1,4,2.3,6.5,3.7,9.9c0.8,1.9,1.5,4,3.1,5.3
		c1.1,0.9,5.1,1.2,7.3,1.2"/>
	<path class="st7" d="M122.3,50c0,3,0,29,0,31.6"/>
	<path class="st7" d="M50,29.8c0.1-0.3,0.2-1.1,0.2-1.3c0.1-0.7,0.3-1.2,0.6-1.6c0.2-0.2,0.7-0.5,1.4-0.8c0.6-0.3,2-0.6,2.7-0.8
		c0.6-0.1,1-0.3,1.2-0.1c0.1,0.1,0.4,0.4,0.6,1c1,4,2.6,10.7,3.5,14.3c0.5,2,1.5,4,3.1,5.4c1.1,0.9,3.3,0.8,5.5,0.8"/>
	<path class="st7" d="M46.5,45.7c0.1-0.1,0.1-0.3,0.2-0.4c0.9-2.3,1.4-4.6,1.6-5.9c0.1-0.9,0.5-3,1-5.2"/>
	<path class="st7" d="M75,51.1c3.2-0.4,5-2.3,6.2-6.4c0.3-1.1,1.4-4.4,2.1-7.1"/>
	<path class="st7" d="M97.5,45c0.4-1.2,1.2-3.3,2.1-6"/>
	<path class="st7" d="M16.3,83.5c0-0.3,0-1.6,0-1.8l0-1.7c0.1-8.7,0.4-29,0-31.2"/>
	<ellipse class="st7" cx="26.2" cy="29.4" rx="1.6" ry="3.2"/>
	<path class="st7" d="M28.3,29.4c0,1.8-0.6,3.2-2,3.2c-0.9,0-1.6-1.4-1.6-3.2c0-1.8,0.7-3.2,1.6-3.2C27.7,26.2,28.3,27.6,28.3,29.4z
		"/>
	<path class="st7" d="M94.4,34.9c6.6,0.8,10.2,1.3,10.2,1.3c1.2,0,1.3,1.1,1.3,1.8c0,0.9-0.7,1.5-1.6,1.5c0,0-3.2-0.3-9-0.9"/>
	<path class="st7" d="M31.9,27.2c12.2,1.7,21.7,3.1,21.7,3.1c1.2,0,1.4,1.3,1.4,2.3c0,1.1-0.7,2-1.6,2c0,0-8.5-0.9-20.2-2.1"/>
	<path class="st7" d="M58.8,30.2c15.7,2.2,29.5,4.1,29.5,4.1c1.2,0,1.3,1.2,1.3,2c0,1-0.7,1.7-1.6,1.7c0,0-12.6-1.4-27.8-3"/>
	<path class="st7" d="M44.6,90.6c1.3-0.2,11.5-1.5,24.4-3"/>
	<path class="st7" d="M122.3,50c-1.1,0-15.5-1.1-16.5-1.1l-0.2,0c-2.1,0-2,0-2.6,1.8c-0.3,1.2-1.7,6.4-2.1,7.9
		c-0.3,1.2-0.7,2.3-1.4,2.9c-0.3,0.3-1,0.6-1.9,0.7c-4.6,0.1-13.7,0.2-14.9,0.1c-2.6-0.1-4-0.1-5-2.5c-1-2.4-2.2-7-2.9-9.6
		c-0.3-1-0.3-2.2-1-2.9c-0.6-0.7-1.4-0.5-2.7-0.5h-0.8c-0.3,0-0.7,0-1.1,0c-9.3,0-18.6-1.1-28-1.1"/>
	<path class="st7" d="M105.8,48.9l-1.2,0c-1.8,0-1.8,0.6-2.3,2.4c-0.3,1.2-2,9.5-3.3,10.1c-0.3,0.3-1.3,0.8-2.2,0.8"/>
	<path class="st7" d="M73.1,87.5c10.5-1.3,22.7-2.8,32.1-3.8"/>
	<path class="st7" d="M108.9,83.3c6.6-0.7,11.7-1.7,13.5-1.7"/>
	<path class="st7" d="M16.3,48.9c-1.9,0-2.8-0.4-2.7,1.9c0,1.1-0.2,19.7,0,27.6c0,1.3-0.3,4.5,0.4,5.1c0.6,0.5,2.3,0,2.3,0"/>
	<path class="st7" d="M41.3,45.6c-1.9,0-3.9-0.6-3.8,1.7c0,1.1-0.1,30.7,0.1,38.6c0,1.3-0.4,4.6,0.3,5.1c0.8,0.6,3.4,0,3.4,0"/>
	<path class="st7" d="M41.3,45.6c1.7,0,2.1,0.1,2.1,1.4c0,1.1,0.1,31.1-0.1,39c0,1.3,0.4,4.6-0.3,5.1c-0.6,0.5-1.7,0-1.7,0"/>
	<path class="st7" d="M41.6,45.6c1.9,0,3-0.3,3,2c0,1.1,0.1,30.4-0.1,38.3c0,1.3,0.4,4.6-0.3,5.1c-0.6,0.5-2.6,0.1-2.6,0.1"/>
	<path class="st7" d="M69,46.7c1.9,0,3-0.5,2.9,1.8c0,1.1,0.1,25.9-0.1,33.8c0,1.3,0.4,4.6-0.3,5.1c-0.6,0.5-3,0.2-3,0.2"/>
	<path class="st7" d="M70.3,46.7c1.9,0,3-0.5,2.9,1.8c0,1.1,0.1,25.9-0.1,33.8c0,1.3,0.4,4.6-0.3,5.1c-0.4,0.3-2,0.3-2.5,0.3"/>
	<path class="st7" d="M105.2,48.9c1.9,0,3-0.5,2.9,1.9c0,1.1,0.1,19.6-0.1,27.5c0,1.3,0.4,4.6-0.3,5.1c-0.6,0.5-2.6,0.2-2.6,0.2"/>
	<path class="st7" d="M105.6,48.9c1.9,0,3.8-0.4,3.7,1.9c0,1.1,0.1,19.6-0.1,27.5c0,1.3,0.4,4.5-0.3,5c-0.3,0.2-1.6,0.4-2.1,0.3"/>
	<path class="st7" d="M121.8,50.1c1.9,0,3-0.7,2.9,1.6c0,1.1,0.1,16.4-0.1,24.3c0,1.3,0.4,4.8-0.3,5.4c-0.6,0.5-2.4,0.2-2.4,0.2"/>
	<path class="st7" d="M123.6,50c1.2-0.1,2.4,0,2.4,1.7c0,1.1,0.1,16.4-0.1,24.3c0,1.3,0.4,4.6-0.3,5.1c-0.2,0.2-1.5,0.3-1.9,0.4"/>
</g>
</svg>
