<?xml version="1.0" encoding="utf-8"?>
<!-- Generator: Adobe Illustrator 21.0.2, SVG Export Plug-In . SVG Version: 6.00 Build 0)  -->
<svg version="1.1" id="Ebene_1" xmlns="http://www.w3.org/2000/svg" xmlns:xlink="http://www.w3.org/1999/xlink" x="0px" y="0px"
	 viewBox="0 0 127.5 55" style="enable-background:new 0 0 127.5 55;" xml:space="preserve">
<style type="text/css">
	.st0{fill:none;stroke:#0090AC;stroke-linecap:round;stroke-miterlimit:10;}
	.st1{fill:#FFFFFF;}
	.st2{fill:none;stroke:#0D90AC;stroke-miterlimit:10;}
	.st3{fill:none;}
	.st4{fill:#0092AD;}
	.st5{clip-path:url(#SVGID_2_);fill:none;stroke:#0092AD;stroke-linecap:round;stroke-miterlimit:10;}
	.st6{clip-path:url(#SVGID_4_);fill:none;stroke:#0091AD;stroke-linecap:round;stroke-miterlimit:10;}
	.st7{clip-path:url(#SVGID_4_);fill:none;stroke:#0091AD;stroke-miterlimit:10;}
	.st8{clip-path:url(#SVGID_4_);fill:#FFFFFF;}
	.st9{clip-path:url(#SVGID_6_);fill:none;stroke:#0090AC;stroke-linecap:round;stroke-miterlimit:10;}
	.st10{clip-path:url(#SVGID_6_);fill:#FFFFFF;}
	.st11{clip-path:url(#SVGID_6_);fill:none;stroke:#D3AB7B;stroke-miterlimit:10;}
	.st12{clip-path:url(#SVGID_12_);fill:none;stroke:#0090AC;stroke-linecap:round;stroke-miterlimit:10;}
	.st13{clip-path:url(#SVGID_12_);fill:none;stroke:#0090AC;stroke-linecap:round;}
	.st14{clip-path:url(#SVGID_12_);fill:#FFFFFF;}
	.st15{fill:none;stroke:#D3AB7B;stroke-miterlimit:10;}
	.st16{clip-path:url(#SVGID_14_);fill:none;stroke:#0090AC;stroke-width:1.046;stroke-miterlimit:10;}
	.st17{clip-path:url(#SVGID_16_);fill:none;stroke:#0090AC;stroke-linecap:round;stroke-miterlimit:10;}
	.st18{clip-path:url(#SVGID_16_);fill:#FFFFFF;}
	.st19{clip-path:url(#SVGID_18_);}
	.st20{clip-path:url(#SVGID_18_);fill:#FFFFFF;}
	.st21{clip-path:url(#SVGID_18_);fill:none;stroke:#0090AC;stroke-linecap:round;stroke-miterlimit:10;}
	.st22{clip-path:url(#SVGID_20_);fill:none;stroke:#0090AC;stroke-linecap:round;stroke-miterlimit:10;}
	.st23{clip-path:url(#SVGID_20_);fill:none;stroke:#0090AC;stroke-linecap:round;}
	.st24{clip-path:url(#SVGID_20_);fill:#FFFFFF;}
	.st25{clip-path:url(#SVGID_22_);fill:none;stroke:#0090AC;stroke-width:1.046;stroke-miterlimit:10;}
	.st26{clip-path:url(#SVGID_24_);fill:none;stroke:#0090AC;stroke-linecap:round;stroke-miterlimit:10;}
	.st27{clip-path:url(#SVGID_24_);fill:#FFFFFF;}
	.st28{clip-path:url(#SVGID_26_);}
	.st29{clip-path:url(#SVGID_26_);fill:#FFFFFF;}
	.st30{clip-path:url(#SVGID_26_);fill:none;stroke:#0090AC;stroke-linecap:round;stroke-miterlimit:10;}
	.st31{clip-path:url(#SVGID_30_);fill:none;stroke:#0090AC;stroke-linecap:round;stroke-miterlimit:10;}
	.st32{clip-path:url(#SVGID_30_);fill:none;stroke:#0090AC;stroke-linecap:round;}
	.st33{clip-path:url(#SVGID_30_);fill:#FFFFFF;}
	.st34{clip-path:url(#SVGID_32_);fill:none;stroke:#0090AC;stroke-width:1.046;stroke-miterlimit:10;}
	.st35{clip-path:url(#SVGID_34_);fill:none;stroke:#0090AC;stroke-linecap:round;stroke-miterlimit:10;}
	.st36{clip-path:url(#SVGID_34_);fill:#FFFFFF;}
	.st37{clip-path:url(#SVGID_36_);}
	.st38{clip-path:url(#SVGID_36_);fill:#FFFFFF;}
	.st39{clip-path:url(#SVGID_36_);fill:none;stroke:#0090AC;stroke-linecap:round;stroke-miterlimit:10;}
</style>
<g>
	<defs>
		<rect id="SVGID_1_" x="6.5" y="5.6" width="113.8" height="46"/>
	</defs>
	<clipPath id="SVGID_2_">
		<use xlink:href="#SVGID_1_"  style="overflow:visible;"/>
	</clipPath>
	<path class="st5" d="M14,44.5c-0.1,0.1-0.2,0.1-0.3,0 M14.7,44.1c0.1-0.1,0.1-0.2,0-0.3 M15.7,42.9h0.2 M14.7,42.3v0.3 M13.6,43.7
		c0,0,0.1,0.1,0,0.1 M15.2,44.2C15.2,44.2,15.3,44.2,15.2,44.2 M17.4,41.9h-0.3 M106.3,40.1c-1.8,0-3.5-0.3-5.3-0.4 M106.5,37.5
		c-1.9,0-4.2,0.4-6-0.2 M105.9,35c-1.4,0.5-3.5-0.4-5.1-0.4 M106.5,32.4c-1.8,0-3.6,0-5.4-0.2 M107.1,29.2c-2.1,0-4.2,0.1-6.2-0.2
		 M107.4,26.8c-1.7,0.7-4.5,0.2-6.4,0.2 M109.6,24.9c0,0-8.7-1.2-10-0.9c-1.3,0.3-1.3,17.2-0.8,17.7s9.6,1.7,9.6,1.7L109.6,24.9z
		 M119.8,47.4c0,0-2.5-5.2-3.8-3.8c-1.3,1.4-2.8,7.5-2.8,7.5 M116.9,12.1c0,0-0.5,8-0.8,11.3c-0.3,3.2,0.5,4.6,0.4,6.4
		c-0.1,1.8-0.5,12.7-0.2,13.6 M117.3,7.2c0,0,0.3,3.1,0,4.3s0.1,2,0.1,2s1.7,3.7,1.9,6.5c0.1,2.8,0.6,20,0.5,21.9
		c-0.1,1.9,0,5.7,0,5.7s-4.9,1.7-6.5,3.6c0,0-1.2,1.1-1.1-7.5c0.1-8.5,0.1-19.7,0.9-22.3c0.8-2.6,3.7-9.9,3.7-9.9 M100.3,10.7
		c0,0-2.3,5.2-2.7,7c-0.4,1.8-1.4,8.9-1.4,12.2c0,0-1.3,16.9,0,17.7c1.3,0.8,3.1,1.5,6.5,1.7c3.4,0.3,9.7,1.6,10.1,1.8 M99.6,10.4
		c-0.1-1.1,0-3.9,0.9-4c0.9-0.1,6.3,0.3,7.5,0c1.3-0.3,6.7-0.4,7.7,0c0.9,0.4,1.5,0.8,1.5,0.8s-0.5,2.5-0.5,3.3v0.8
		c0,0-5,0.7-8.7,0.4c-3.3-0.3-6-0.3-7.7-1C100.1,10.7,99.8,10.5,99.6,10.4z M28.6,32.3c-0.2-1.1-2-2.3-3-2.6 M35.9,28.6
		c-1.1-0.5-1.9-1.6-2.8-2.3 M34.3,29.3c-0.1-0.8-1.9-2.2-2.6-2.5 M33,30c-0.3-0.9-1.9-1.8-2.6-2.4 M31.6,30.7c-1-0.8-2-1.6-2.9-2.5
		 M27.1,28.6c0.8,0.8,2.7,1.7,3,2.8 M27.2,34.9L20.1,30l14.6-6.1l6.7,5.2L27.2,34.9z M7,38l8.7-2.6 M51.5,28.4
		c0,0-11.6-8.6-12.8-8.4c-1.2,0.2-5.8,2.5-8.6,3.6c-2.7,1.1-19,5.6-20.3,8 M21.5,39.4c0,0,28.7-11.1,29.2-11.2
		c0.5-0.1,1.4,0.4,1.3,2.1c-0.2,1.7,0.4,11.5-1.7,12.5c-2.1,1-13.2,4-17.7,4.6C28.1,48,20,49.1,20,49.1 M19.3,49
		c0,0-1.1-2.9-0.3-4.8c0.7-1.9,2.5-4.8,2.5-4.8s-6.4-4.5-8.3-5.6c-1.9-1-3.4-1.8-3.4-1.8s0.1,2.9-0.2,3.5c-0.3,0.6-2.5,2.3-2.6,2.3
		c-0.1,0,2.2,6,3.3,7.1C11.4,46.1,15.6,48.5,19.3,49z M66.7,33.7c0,0-10.2,5.5-8,6.4c2.2,0.9,12,3.7,12,3.7 M58.8,39.5
		c0,0,23.3-1.3,27.7-0.7 M79.6,20.3c0,0,9.8,2.7,8.3,4c-1.4,1.3-6.5,5.5-6.5,5.5 M58.7,25.3c0,0,19.4-2.6,29.3-1.1"/>
</g>
</svg>
